<svg xmlns="http://www.w3.org/2000/svg" viewBox="0 0 175 64" height="64" width="175"><defs><linearGradient gradientUnits="userSpaceOnUse" gradientTransform="scale(1.00911 .99097)" id="a" y2="81.052" x2="10.836" y1="44.108" x1="36.372"><stop offset="0%" stop-color="#E0DEDE"/><stop offset="100%" stop-color="#B1B1B1"/></linearGradient><linearGradient gradientUnits="userSpaceOnUse" gradientTransform="scale(1.00905 .99103)" id="b" y2="82.174" x2="10.144" y1="43.657" x1="36.701"><stop offset="0%"/><stop offset="100%" stop-color="#515254"/></linearGradient><linearGradient gradientUnits="userSpaceOnUse" gradientTransform="scale(.53452 1.87083)" id="c" y2="39.727" x2="121.803" y1="28.461" x1="104.856"><stop offset="0%" stop-color="#FFF"/><stop offset="100%" stop-color="#DBDBDB"/></linearGradient><linearGradient gradientUnits="userSpaceOnUse" gradientTransform="scale(.53343 1.87464)" id="d" y2="39.755" x2="122.024" y1="28.465" x1="105.045"><stop offset="0%" stop-color="#737577"/><stop offset="100%" stop-color="#939598"/></linearGradient><linearGradient gradientUnits="userSpaceOnUse" gradientTransform="scale(.87359 1.1447)" id="e" y2="32.426" x2="28.765" y1="26.136" x1="52.805"><stop offset="2.312%" stop-color="#FD6F20"/><stop offset="100%" stop-color="#F1713A"/></linearGradient><linearGradient gradientUnits="userSpaceOnUse" gradientTransform="scale(.87359 1.1447)" id="f" y2="32.457" x2="28.731" y1="26.151" x1="52.789"><stop offset="0%" stop-color="#F26C21"/><stop offset="100%" stop-color="#C94F1B"/></linearGradient><linearGradient gradientUnits="userSpaceOnUse" gradientTransform="scale(.53803 1.85864)" id="g" y2="21.484" x2="108.35" y1="11.473" x1="84.952"><stop offset="0%" stop-color="#FFBC0E"/><stop offset="100%" stop-color="#FF9E6C"/></linearGradient><linearGradient gradientUnits="userSpaceOnUse" gradientTransform="scale(.53732 1.86108)" id="h" y2="21.465" x2="108.44" y1="13.605" x1="77.44"><stop offset="0%" stop-color="#F5B819"/><stop offset="100%" stop-color="#F26922"/></linearGradient></defs><path fill="none" d="M-6-11h200v84H-6z"/><path d="M147.9 26l9.9 12.4 9.9-12.4v19.8h6.6V15.7h-6L157.8 29l-10.5-13.3h-6v30.1h6.6zM109.2 21.7h9.6v24.1h6.8V21.7h9.6v-5.9h-26zM90.9 35.2l7.5 10.5h7.8L95.4 30.5l9.8-14.8h-7.6l-6.7 9.9-6.6-9.9h-7.6l9.8 14.8-10.8 15.2h7.8z" fill="#282829" stroke="#282829"/><path transform="translate(-6 -11)" fill="url(#a)" d="M6 64.993l42 9 14-15v-32l-2-2L15 19l-9 1.993z"/><path transform="translate(-6 -11)" fill="url(#b)" d="M6 65l42 9 14-15V27l-2-2-45-6-9 2z"/><path transform="translate(-6 -11)" fill="url(#c)" d="M48 56l12-31 2 2v32L48 74z"/><path transform="translate(-6 -11)" fill="url(#d)" d="M48 55.9L60 25l2 2v32L48 74.2z"/><path fill="#c4c4c4" d="M42 45L9 8l45 6z"/><path fill="#414042" d="M42 45L9 8l45 6z"/><path transform="translate(-6 -11)" fill="url(#e)" d="M48 12l-29 6 29 32z"/><path transform="translate(-6 -11)" fill="url(#f)" d="M48 12l-29 6 29 32z"/><path transform="translate(-6 -11)" fill="url(#g)" d="M48 12l11 12.042L48 50z"/><path transform="translate(-6 -11)" fill="url(#h)" d="M48 11.9L59 24 48 50z"/></svg>