<svg xmlns="http://www.w3.org/2000/svg" viewBox="0 0 174 62" height="62" width="174"><defs><linearGradient gradientUnits="userSpaceOnUse" gradientTransform="scale(1.00905 .99103)" id="a" y2="68.947" x2="4.89" y1="31.999" x1="30.428"><stop offset="0%" stop-color="#E0DEDE"/><stop offset="100%" stop-color="#B1B1B1"/></linearGradient><linearGradient gradientUnits="userSpaceOnUse" gradientTransform="scale(.53452 1.87083)" id="b" y2="33.312" x2="110.578" y1="22.047" x1="93.631"><stop offset="0%" stop-color="#FFF"/><stop offset="100%" stop-color="#DBDBDB"/></linearGradient><linearGradient gradientUnits="userSpaceOnUse" gradientTransform="scale(.87359 1.1447)" id="c" y2="21.943" x2="21.897" y1="15.653" x1="45.937"><stop offset="2.312%" stop-color="#FD6F20"/><stop offset="100%" stop-color="#F1713A"/></linearGradient><linearGradient gradientUnits="userSpaceOnUse" gradientTransform="scale(.53803 1.85864)" id="d" y2="15.028" x2="97.198" y1="5.016" x1="73.801"><stop offset="0%" stop-color="#FFBC0E"/><stop offset="100%" stop-color="#FF9E6C"/></linearGradient></defs><path fill="none" d="M-7-12h200v84H-7z"/><path d="M156.183 37.516l9.904-12.457v19.806h6.602v-30.02h-5.98l-10.526 13.203-10.526-13.204h-5.979V44.865h6.665V25.121zM117.63 44.865h6.851V20.761h9.467v-5.854H108.1v5.854h9.53zM105.422 44.803L94.71 29.543l9.779-14.699h-7.599l-6.726 9.779-6.602-9.779h-7.6l9.842 14.7-10.775 15.259h7.785l7.412-10.526 7.474 10.526z" fill="#fff" stroke="#fff"/><path fill="url(#a)" d="M56 47V15l-2-2L9 7 0 9v44l42 9z"/><path fill="url(#b)" d="M56 15v32L42 62V44l12-31z"/><path fill="#c4c4c4" d="M54 13L42 44 9 7z"/><path fill="url(#c)" d="M42 38V0L13 6z"/><path fill="url(#d)" d="M42 38V0l11 12.042z"/></svg>